<?xml version="1.0" encoding="utf-8"?>
<svg height="16" viewBox="0 0 16 16" width="16" xmlns="http://www.w3.org/2000/svg" xmlns:bx="https://boxy-svg.com">
  <defs>
    <bx:guide x="11.006" y="2.29" angle="0"/>
  </defs>
  <path d="M 3 1 C 1.895 1 1 1.895 1 3 C 1 4.105 1.895 5 3 5 C 4.105 5 5 4.105 5 3 C 5 1.895 4.105 1 3 1 Z M 13 1 C 11.895 1 11 1.895 11 3 C 11 4.105 11.895 5 13 5 C 14.105 5 15 4.105 15 3 C 15 1.895 14.105 1 13 1 Z M 3 11 C 1.895 11 1 11.895 1 13 C 1 14.105 1.895 15 3 15 C 4.105 15 5 14.105 5 13 C 5 11.895 4.105 11 3 11 Z" fill="#ffd684"/>
  <path d="M 13.006 11 C 11.901 11 11.006 11.895 11.006 13 C 11.006 14.105 11.901 15 13.006 15 C 14.111 15 15.006 14.105 15.006 13 C 15.006 11.895 14.111 11 13.006 11 Z" fill="#ffd684"/>
</svg>