<svg height="16" width="16" xmlns="http://www.w3.org/2000/svg"><g fill="#b40000" stroke="#b40000" transform="matrix(.11030909 0 0 .11030909 -1.872326 -1.789799)"><g stroke-width="4.671529"><g><g transform="matrix(1.09225070663 0 0 1.09225070663 -331.84214987445 -30.14518350944)"><ellipse cx="-96.461861" cy="96.154663" rx="14.745763" ry="15.052966" transform="matrix(.53863386 0 0 .52742841 388.75871 108.36873)"/><ellipse cx="-96.461861" cy="96.154663" rx="14.745763" ry="15.052966" transform="matrix(.53863386 0 0 .52742841 388.75871 58.368734)"/></g><ellipse cx="-96.461861" cy="96.154663" rx="14.745763" ry="15.052966" transform="matrix(.5883232142 0 0 .57608405352 92.36584561491 -22.09812500123)"/></g><g><g transform="matrix(1.09225070663 0 0 1.09225070663 -277.69899513553 -29.64292460337)"><ellipse cx="-96.461861" cy="96.154663" rx="14.745763" ry="15.052966" transform="matrix(.53863386 0 0 .52742841 388.75871 108.36873)"/><ellipse cx="-96.461861" cy="96.154663" rx="14.745763" ry="15.052966" transform="matrix(.53863386 0 0 .52742841 388.75871 58.368734)"/></g><ellipse cx="-96.461861" cy="96.154663" rx="14.745763" ry="15.052966" transform="matrix(.5883232142 0 0 .57608405352 146.5090155961 -21.59586609516)"/></g><g><g transform="matrix(1.09225070663 0 0 1.09225070663 -223.08645523142 -29.64292003069)"><ellipse cx="-96.461861" cy="96.154663" rx="14.745763" ry="15.052966" transform="matrix(.53863386 0 0 .52742841 388.75871 108.36873)"/><ellipse cx="-96.461861" cy="96.154663" rx="14.745763" ry="15.052966" transform="matrix(.53863386 0 0 .52742841 388.75871 58.368734)"/></g><ellipse cx="-96.461861" cy="96.154663" rx="14.745763" ry="15.052966" transform="matrix(.5883232142 0 0 .57608405352 201.12155550022 -21.59586152248)"/></g></g><path d="m35.822077 143.61161v-110.282194" stroke-width="4.14533"/><path d="m89.965239 143.35152v-110.282206" stroke-width="4.14533"/><path d="m144.57777 143.09142v-108.981707" stroke-width="4.14533"/><g stroke-width="2.71963" transform="matrix(0 1.5242276 -1.5242276 0 171.8607 156.06013)"><path d="m-80.321827 89.686702v-72.011556"/><path d="m-44.80012 89.345415v-72.182201"/><path d="m-8.9704739 89.345413v-71.670268"/></g></g></svg>
