<svg height="16" viewBox="0 0 4.2333332 4.2333332" width="16" xmlns="http://www.w3.org/2000/svg"><g fill-rule="evenodd"><g fill="#627d44"><ellipse cx="2.591796" cy="2.025404" rx=".593593" ry=".369618" stroke-width=".02664"/><ellipse cx="1.694071" cy=".836433" rx="1.206639" ry=".751349" stroke-width=".054153"/><ellipse cx="1.426312" cy="2.135494" rx="1.004198" ry=".625293" stroke-width=".045067"/><ellipse cx="2.78631" cy="1.165914" rx="1.156028" ry=".719835" stroke-width=".051881"/></g><path d="m2.7528867.53707413c-.038193 0-.07635.00091874-.1134086.003522l.062374.0823852c.056997-.006356.1158716-.009411.1757821-.009411.2396375 0 .4579648.0531367.6294167.14123302-.1819222-.13342652-.4510571-.21772769-.7541642-.21772769z" fill="#6a945c" stroke-width=".019751"/><g fill="#8f4b36" transform="matrix(.06048377 0 0 .03766201 -15.607999 -9.202058)"><path d="m296.9 355.31-6.461-.0158c.47208-9.1771.95293-18.291.82608-27.396-.0887-5.3063-.25335-10.554-1.6161-15.54-.87509-3.2274-2.4539-6.3054-4.7632-8.7978-2.5745-2.7907-5.8045-5.0156-8.9682-7.2628 3.3692 1.9258 6.7988 3.8166 9.7682 6.4443 2.693 2.3966 4.7374 5.5187 6.033 8.9407 1.9451 5.1474 2.7033 10.647 3.2898 15.978 1.0358 9.2131 1.4643 18.472 1.8914 27.649z"/><path d="m291.39 332.09 3.7536-.13472c-.97476-16.245-.76292-32.761 3.973-48.307 0 0 .00001 0 .00001-.00001 1.4551-4.7678 3.3396-9.4487 6.2597-13.485 1.9831-2.7316 4.5039-5.2432 7.7342-6.3218-3.2806.91419-5.9996 3.3256-8.1444 6.0092-.00001 0-.00001 0-.00001.00001-3.1688 3.9517-5.3507 8.6309-7.061 13.395v.00001c-5.5803 15.519-6.7145 32.377-6.5151 48.844z"/><path d="m294.48 295.27 1.761.54434c.22649-.89349.14434-1.7082.0105-2.387-.17887-1.0772-.47765-2.1037-.81405-3.0915-.91331-2.6919-2.1353-5.2457-3.5044-7.6919-1.5433-2.7612-3.3046-5.4073-5.3473-7.8126-1.8279-2.1564-3.8998-4.1794-6.3816-5.5003 2.3996 1.4649 4.3098 3.5788 5.9934 5.811 1.8744 2.49 3.4473 5.1903 4.8028 7.9883v.00001c1.2014 2.4833 2.2433 5.0356 2.9613 7.6585.26316.96554.48455 1.9234.58106 2.871.047.65101.10709 1.2216-.0628 1.6103z"/><path d="m292.97 309.72 1.8373-.14796c-.16308-1.0542.11018-2.2314.48833-3.4034.49118-1.4674 1.2403-2.8642 2.228-4.0828 1.0442-1.2837 2.3716-2.3709 3.9263-2.9861 1.7564-.70223 3.7869-.73923 5.6823-.24327-1.8411-.66997-3.9134-.8411-5.8596-.27405-1.7114.50435-3.26 1.5268-4.5164 2.8176-1.1864 1.2143-2.1505 2.6567-2.8442 4.2293-.55258 1.2159-.9845 2.5902-.94185 4.0907z"/></g><g fill="#6a945c" stroke-width=".019751"><path d="m1.6791214.17058415c-.5790072 0-1.04773453.29186736-1.04773453.65240349 0 .18942436.1296828.36034856.33664673.47959246-.12287231-.1069342-.19542528-.2378638-.19542528-.37937863 0-.36053612.47037918-.6534319 1.04938638-.6534319.2726714 0 .5196874.0655574.7061572.17179713-.1904269-.16409809-.4990631-.27098255-.8490255-.27098255z"/><path d="m1.4333318 1.5823836c-.4798904 0-.86847336.241963-.86847336.5407812 0 .1494098.0979004.2850091.25515071.3829317-.0997776-.088079-.15701251-.1956584-.15701251-.3116448 0-.2988183.38858286-.5407805.86847336-.5407805z"/></g></g></svg>