<svg height="16" viewBox="0 0 16 16" width="16" xmlns="http://www.w3.org/2000/svg"><g transform="matrix(.297366 0 0 .297366 -29.668886 1.568468)"><path d="m126.91525 9.6629333a15.232 15.232 0 0 1 14.50013 10.5672127 15.232 15.232 0 0 1 -5.61883 17.039613 15.232 15.232 0 0 1 -17.94164-.130477l9.06034-12.244348z" stroke-width=".083212"/><path d="m130.09525-1.4240678v3.21a.469.469 0 0 1 -.47.47h-.36v1.56a20.315 20.315 0 0 0 -2.35-.13 20.545 20.545 0 0 0 -2.08.1v-1.53h-.35a.469.469 0 0 1 -.47-.47v-3.21a.469.469 0 0 1 .47-.47h5.14a.469.469 0 0 1 .47.47z"/><path d="m114.74525 7.5459322a19.22 19.22 0 0 0 -2.65 2.2000003l-.58-.7300003-.14.12a.473.473 0 0 1 -.66-.07l-1.06-1.29a.456.456 0 0 1 .07-.66l2.94-2.38a.473.473 0 0 1 .66.07l1.06 1.28a.468.468 0 0 1 -.07.67l-.13.1z"/><path d="m144.43525 7.7759322-1.05 1.29a.474.474 0 0 1 -.66.07l-.14-.12-.7.8700003a20.3 20.3 0 0 0 -2.6-2.2000003l.62-.83-.13-.1a.486.486 0 0 1 -.07-.67l1.06-1.28a.473.473 0 0 1 .66-.07l2.95 2.38a.463.463 0 0 1 .06.66z"/><path d="m127.05125 23.703933a1.192 1.192 0 1 0 1.192 1.191 1.194 1.194 0 0 0 -1.192-1.191z"/><path d="m126.91525 5.1839322a19.711 19.711 0 1 0 19.711 19.7110008 19.711 19.711 0 0 0 -19.711-19.7110008zm14.511 28.0890008c-.005.008-.014.01-.019.018a16.857 16.857 0 0 1 -6.092 6.091c-.01.007-.015.018-.026.024s-.015 0-.021.006a16.632 16.632 0 0 1 -16.714 0c-.006 0-.014 0-.021-.006s-.016-.017-.026-.024a16.857 16.857 0 0 1 -6.088-6.091c0-.008-.014-.01-.019-.018s0-.018-.009-.027a16.629 16.629 0 0 1 0-16.7c0-.009 0-.018.009-.027s.017-.016.024-.027a16.865 16.865 0 0 1 6.091-6.084c.01-.007.015-.018.026-.024s.018 0 .027-.009a16.635 16.635 0 0 1 16.7 0c.009 0 .018 0 .027.009s.016.017.026.024a16.865 16.865 0 0 1 6.083 6.082c.007.011.018.016.024.027s0 .018.009.027a16.629 16.629 0 0 1 0 16.7c-.007.012-.006.021-.011.029z"/></g></svg>