<svg enable-background="new 0 0 16 16" viewBox="0 0 16 16" xmlns="http://www.w3.org/2000/svg"><path d="m14.4 6.4c-.1-.1-.2-.1-.3 0-.4.4-1.2 1.1-1.5 1-.2 0-.4-.1-.6-.2-.4-.2-1-.3-1.5-.2-.1-.1-.2-.2-.4-.3.2-.4.2-.9 0-1.3s.1 0 .1-.1c.2-.1.6-.3.9-.6.8-.8.4-2.4.4-2.5s-.1-.2-.2-.1c-.1 0-.2.1-.1.2 0 0 .3 1.5-.3 2.1-.3.3-.6.5-.8.6-.1.1-.1.2-.2.2-.2-.3-.4-.5-.7-.6.1-.1.2-.4.2-.6.1-.1.2-.3.1-.5-.1-.1-.2-.1-.3-.2-.1-.2-.4-.4-.7-.5.4-1 1.4-1.9 1.4-1.9.1-.1.1-.2 0-.3s-.2-.1-.3 0-1.1 1-1.5 2.1c-.2 0-.4 0-.6.1-.1.1-.3.2-.4.4-1.1-.4-2.5-.3-2.6-.3s-.2.1-.1.2c0 .1.1.2.2.2 0 0 1.3-.1 2.4.2-.1.3-.1.6 0 .9-.1.1-.1.2 0 .4-.1.1.1.2.2.1.2.2.4.3.6.3-.1.3-.1.6 0 .9-.1 0-.1 0-.2.1-.2.1-.5.2-1 .2-.9 0-1.8-1.2-1.8-1.2-.1-.1-.2-.1-.3 0s-.1.2 0 .3c0 .1 1 1.4 2.1 1.3.5 0 .8-.2 1.1-.3.1 0 .1 0 .2-.1.2.5.6.8 1 .9 0 .1-.1.3-.1.5-.4.4-.6.9-.8 1.3-.1.3-.2.5-.3.6-.2.2-1.2.4-1.8.4-.1 0-.2.1-.2.2s.1.2.2.2c.2 0 1.1-.1 1.7-.3.2-.1.3-.2.4-.3.1-.2.2-.4.3-.6.1-.4.3-.7.6-1 0 .1 0 .1.1.2.2.4.5.7.8.8-.7.2-.7.9-.6 1.4v.7c-.2.5-.9.8-1.2.9-.1 0-.2.1-.1.2 0 .1.1.2.2.1 0 0 .2-.1.4-.1.4-.2.9-.5 1.1-1 .1-.2.1-.5.1-.7 0 .3.1.5.2.8.5 1.2 1.6 1.8 2.4 1.4s1-1.6.5-2.7c-.1-.2-.2-.4-.3-.6.1.1.3.3.5.3.5.2 1.1 0 1.5-.2.2-.1.3-.2.4-.2.1-.1.1-.2.1-.3-.1-.1-.2-.1-.3-.1-.3.2-1 .5-1.5.3-.2-.1-.4-.3-.6-.5-.6-.1-1-.6-1.6-.2.1-.3.1-.8 0-1.2 0 0 0-.1-.1-.1.4 0 .8.1 1.1.2s.5.2.7.2c.1 0 .3 0 .4-.1.6-.3 1.2-.9 1.4-1.1-.1-.1-.1-.2-.1-.3z" fill="#4aada2"/><path d="m4.2 14.4s0-.1-.1-.1c-.3-.1-.7-.2-.8-.3 0-.1-.1-.2-.1-.3 0-.2-.1-.5-.3-.6 0-.1 0-.1 0-.2.2 0 .4-.1.5-.3h.1c.1.1.3.2.5.2.5.1 1-.4 1.1-.4v-.1h-.1s-.5.5-.9.4c-.2 0-.3-.1-.4-.2 0 0 0 0-.1 0 .1-.1.1-.3.1-.4.1 0 .2 0 .3-.1.1 0 .2 0 .2-.1s0-.1 0-.2c.1-.1.1-.3 0-.4.5-.1 1.1.1 1.1.1s.1 0 .1-.1c0 0 0-.1-.1-.1 0 0-.7-.2-1.2-.1 0-.1-.1-.1-.2-.2s-.2-.1-.3-.1c-.1-.5-.5-1.1-.5-1.1h-.1v.1s.4.5.5 1c-.1 0-.3.1-.3.2-.1 0-.1 0-.1.1v.2.3c-.1 0-.2.1-.3.2 0 0 0 0-.1-.1s-.2-.2-.3-.3c-.2-.3 0-1 0-1v-.1h-.1s-.3.7 0 1.2c.1.2.3.3.4.4 0 0 0 0 .1.1-.1.2-.2.4-.1.6-.1 0-.1 0-.2.1-.2-.1-.5-.1-.7 0-.1 0-.2 0-.3 0s-.4-.4-.6-.6c0 0-.1-.1-.1 0 0 0-.1.1 0 .1.1.1.3.4.5.6.1 0 .1.1.2.1h.3c.2 0 .4-.1.5 0v.1c-.3-.1-.3.1-.3.3-.3-.2-.5 0-.7.1-.1.1-.2.1-.3.2-.2.1-.5-.2-.6-.3h-.1v.1s.1.1.1.1c.2.1.4.2.7.2.1 0 .2-.1.3-.2-.1.1-.2.2-.2.3-.3.5-.3 1.1 0 1.3s.9 0 1.2-.5c.1-.1.1-.2.1-.3v.3c0 .2.3.4.4.5 0 .2.1.2.1.2h.1v-.1c-.1-.1-.4-.3-.5-.5 0-.1 0-.2 0-.3.1-.2.1-.5-.2-.7.2 0 .3-.1.4-.3 0 0 0 0 0-.1.1.1.1.3.2.5 0 .1.1.2.1.3 0 0 .1.1.1.1.2.2.6.3.7.3.3-.1.3-.1.3-.1z" fill="#75bbb4"/></svg>
