<svg height="16" viewBox="0 0 16 16" width="16" xmlns="http://www.w3.org/2000/svg"><g fill="#5eafb6" transform="matrix(.00725 0 0 .006732 .349251 .404079)"><path d="m742 863c60-103 171-169 294-169 188 0 341 154 341 341 0 188-154 341-341 341-188 0-342-152-342-341 0-71 25-136 48-172zm1304-461c-91-146-214-271-357-365l-87 135-33 51-296 460c-62-43-147-73-237-73-91 0-176 30-238 73l-415-646c-144 94-266 219-358 365l140 90 41 26 465 299c-38 62-60 138-60 218 0 205 145 376 338 416l-25 115c-240-49-430-266-430-531 0-85 19-165 54-237l-50-32-49-32c-47 91-73 193-73 301 0 321 231 586 523 645l-113 522c81 17 164 26 250 26 85 0 169-9 249-26l-113-522c292-59 523-323 523-645 0-108-26-210-72-301l-50 32-50 32c35 72 55 152 55 237 0 262-187 480-431 531l-25-115c178-33 339-200 339-416 0-81-24-157-61-218z"/><path d="m778 558c77-41 165-65 258-65s181 24 257 65l32-49 32-50c-95-53-205-84-321-84-117 0-227 31-322 84l32 50z"/></g></svg>
