<?xml version="1.0" encoding="UTF-8" standalone="no"?>
<svg
   xmlns:dc="http://purl.org/dc/elements/1.1/"
   xmlns:cc="http://creativecommons.org/ns#"
   xmlns:rdf="http://www.w3.org/1999/02/22-rdf-syntax-ns#"
   xmlns:svg="http://www.w3.org/2000/svg"
   xmlns="http://www.w3.org/2000/svg"
   xmlns:sodipodi="http://sodipodi.sourceforge.net/DTD/sodipodi-0.dtd"
   xmlns:inkscape="http://www.inkscape.org/namespaces/inkscape"
   height="16"
   viewBox="0 0 16 16"
   width="16"
   version="1.1"
   id="svg841"
   sodipodi:docname="icon_insects_manager_instance.svg"
   inkscape:version="1.0.2 (e86c8708, 2021-01-15)">
  <metadata
     id="metadata847">
    <rdf:RDF>
      <cc:Work
         rdf:about="">
        <dc:format>image/svg+xml</dc:format>
        <dc:type
           rdf:resource="http://purl.org/dc/dcmitype/StillImage" />
        <dc:title></dc:title>
      </cc:Work>
    </rdf:RDF>
  </metadata>
  <defs
     id="defs845" />
  <sodipodi:namedview
     pagecolor="#ffffff"
     bordercolor="#666666"
     borderopacity="1"
     objecttolerance="10"
     gridtolerance="10"
     guidetolerance="10"
     inkscape:pageopacity="0"
     inkscape:pageshadow="2"
     inkscape:window-width="1817"
     inkscape:window-height="1019"
     id="namedview843"
     showgrid="false"
     units="px"
     inkscape:zoom="11.773958"
     inkscape:cx="30.23622"
     inkscape:cy="9.8522516"
     inkscape:window-x="0"
     inkscape:window-y="23"
     inkscape:window-maximized="0"
     inkscape:current-layer="svg841" />
  <path
     d="M 15.971012,8.9277546 C 15.922522,8.8082739 15.786319,8.7508135 15.66676,8.7994557 14.972596,9.0821992 13.839719,9.4024902 13.496022,9.2305628 13.329719,9.1474113 13.127088,8.9581577 12.912595,8.7576517 12.497253,8.3696789 11.998953,7.90165 11.349614,7.7803661 11.275192,7.5962026 11.174298,7.431726 11.051424,7.2973559 11.427912,6.9634334 11.6748,6.409025 11.6748,5.7804904 c 0,-0.00354 -3.97e-4,-0.00695 -5.18e-4,-0.010467 0.05669,-0.00446 0.117464,-0.0083 0.187858,-0.011869 0.32713,-0.016718 0.775038,-0.039523 1.346374,-0.261159 1.257447,-0.4878061 1.67244,-2.4644269 1.689467,-2.5483356 0.02569,-0.1263239 -0.05595,-0.249604 -0.182263,-0.2752936 -0.126398,-0.025234 -0.24968,0.055941 -0.275294,0.1822642 -0.0037,0.018088 -0.378666,1.8095569 -1.400794,2.2060047 -0.501259,0.1944237 -0.889428,0.2141875 -1.201277,0.2301467 -0.07231,0.00367 -0.143501,0.00809 -0.213949,0.014022 -0.07812,-0.3740265 -0.244378,-0.7023072 -0.470906,-0.9435028 0.210909,-0.1540731 0.381668,-0.3587115 0.495218,-0.5966124 0.189083,-0.039712 0.332869,-0.2327989 0.332869,-0.4662503 0,-0.1695694 -0.07629,-0.3173072 -0.190193,-0.4012661 -0.04577,-0.3843444 -0.22978,-0.7258477 -0.500236,-0.9747037 0.967993,-0.887924 2.467464,-1.43005906 2.48885,-1.43756042 0.121536,-0.0431725 0.185073,-0.17663961 0.141979,-0.2980961 C 13.878889,0.06620677 13.745123,0.0026642 13.623963,0.04568552 13.529221,0.07929984 11.932484,0.65633128 10.8965,1.6579277 10.692206,1.5613513 10.464389,1.5063332 10.223306,1.5063332 c -0.2496332,0 -0.4855279,0.058011 -0.6951904,0.1611608 C 8.4924166,0.65997965 6.8857609,0.07940684 6.7907039,0.04567869 6.6693214,0.00281096 6.5357799,0.06619981 6.4926075,0.18781025 6.4495868,0.30942055 6.5132069,0.44273253 6.6347392,0.485905 6.6562574,0.49344744 8.1736497,1.0407974 9.1409801,1.9384107 8.8873102,2.1783051 8.7120567,2.5004478 8.6605641,2.8631488 8.5541939,2.9486546 8.484251,3.09212 8.484251,3.2549229 c 0,0.2131026 0.1203735,0.3912793 0.2850141,0.4513046 C 8.8817226,3.9698077 9.0645984,4.195357 9.29312,4.3622939 9.0660399,4.6040687 8.8994721,4.9333284 8.8216059,5.3084761 8.7410974,5.3008213 8.6593603,5.2959977 8.5763256,5.2917752 8.2644706,5.2758121 7.8763079,5.2560522 7.3750482,5.0616289 6.3557265,4.6662444 5.9779777,2.873563 5.9742512,2.8554728 5.9484055,2.7293014 5.8251259,2.6464553 5.6988075,2.6735136 c -0.1262456,0.02569 -0.2078003,0.14882 -0.1821143,0.2751424 0.017025,0.08391 0.4320191,2.0605296 1.689466,2.5483373 0.5713396,0.2216318 1.0193218,0.244434 1.3463744,0.2611583 0.083607,0.00426 0.1550625,0.00862 0.2196885,0.014442 -1.02e-5,0.00268 -3.976e-4,0.00523 -3.976e-4,0.00791 0,0.6285333 0.246884,1.1829429 0.6233715,1.5168657 C 9.2737859,7.4301388 9.1739529,7.5924124 9.0997578,7.7738982 8.4358621,7.8847511 7.9244753,8.3630653 7.502078,8.757814 7.2875894,8.9581684 7.0850318,9.1474235 6.9188071,9.2305737 6.5748794,9.4028019 5.4422355,9.0820558 4.7479169,8.7994667 4.6284337,8.7508248 4.4922319,8.8082945 4.443586,8.9277654 4.394944,9.0470955 4.452336,9.1832962 4.5717332,9.2319423 4.8194394,9.332878 5.8728863,9.7430079 6.6242843,9.7430079 c 0.1943451,0 0.3685536,-0.027363 0.5033128,-0.094706 C 7.3543984,9.5348965 7.580972,9.3231458 7.8209262,9.0989266 8.1603961,8.7818573 8.5353094,8.4345753 8.9716023,8.2879978 c -0.00708,0.067932 -0.011821,0.1367843 -0.011821,0.2071757 0,0.5387332 0.2138642,1.0139805 0.5401311,1.3011874 -0.018062,0.010579 -0.035368,0.023192 -0.053152,0.034539 C 8.5658051,9.7424529 8.2749106,10.484213 8.0426343,11.082544 7.9250532,11.385352 7.80352,11.698653 7.6230062,11.897178 c -0.4180357,0.459989 -1.4413826,0.435211 -1.8003569,0.386871 -0.127313,-0.01583 -0.245348,0.07222 -0.2626779,0.200048 -0.017326,0.127694 0.071975,0.245197 0.1996686,0.26268 0.022046,0.003 0.2194289,0.02873 0.4952574,0.02873 0.5074147,0 1.280094,-0.08724 1.7136361,-0.56427 0.2005997,-0.220569 0.3295537,-0.505844 0.4445605,-0.794486 -0.078232,0.304188 -0.1220768,0.632713 -0.1220768,0.976597 0,1.547439 0.8650945,2.801893 1.9322518,2.801893 1.067152,0 1.932246,-1.254454 1.932246,-2.801893 0,-0.278744 -0.02895,-0.547377 -0.08127,-0.801354 0.09807,0.226728 0.212132,0.443592 0.37188,0.619254 0.433542,0.477016 1.206218,0.564269 1.713637,0.564269 0.275748,0 0.473214,-0.02569 0.495256,-0.02873 0.127766,-0.01749 0.217147,-0.135138 0.199742,-0.262981 -0.01756,-0.127841 -0.135971,-0.216468 -0.262981,-0.199746 -0.358292,0.0491 -1.38042,0.07478 -1.800129,-0.386873 -0.180504,-0.198537 -0.302039,-0.51168 -0.419618,-0.814645 -0.229568,-0.591376 -0.516824,-1.3221966 -1.374602,-1.2531518 -0.01702,-0.010802 -0.03355,-0.022914 -0.05081,-0.033018 0.326264,-0.2872047 0.540127,-0.76245 0.540127,-1.301183 0,-0.066247 -0.0041,-0.1312431 -0.01012,-0.1953359 0.421037,0.1527152 0.786875,0.4905645 1.11716,0.7990932 0.239949,0.2242192 0.466601,0.4359702 0.693478,0.5493724 0.134759,0.067341 0.308813,0.094853 0.503237,0.094853 0.75132,0 1.804845,-0.4102795 2.05255,-0.5112173 0.11932,-0.048651 0.176631,-0.1848545 0.127987,-0.3041838 z"
     fill="#4aada2"
     stroke-width="0.035091"
     id="path833" />
  <g
     fill="#75bbb4"
     stroke-width="0.013209"
     id="g839">
    <path
       d="m 4.2241179,14.37139 c 0.00992,-0.04752 -0.020505,-0.09408 -0.068067,-0.103999 -0.2762149,-0.05755 -0.6973445,-0.195548 -0.7685601,-0.321477 -0.034473,-0.0609 -0.057987,-0.162599 -0.082849,-0.270295 -0.048201,-0.208445 -0.105489,-0.459326 -0.2828092,-0.633647 0.015455,-0.07316 0.018508,-0.145724 0.00836,-0.21351 0.1877524,-0.02518 0.3813538,-0.146463 0.5134235,-0.342769 7.241e-4,-9.99e-4 0.00128,-0.0021 0.00203,-0.0034 0.018616,0.01062 0.038456,0.02202 0.061164,0.03576 0.1056917,0.0635 0.2503683,0.150507 0.4753804,0.201342 0.4952327,0.111859 1.040175,-0.418286 1.0631237,-0.440915 0.034571,-0.03405 0.034922,-0.08972 9.286e-4,-0.124276 -0.034166,-0.03446 -0.089759,-0.03494 -0.1242753,-9.31e-4 -0.00493,0.0047 -0.4984955,0.485604 -0.9010348,0.394653 -0.1974085,-0.04461 -0.3227994,-0.119984 -0.4235501,-0.180531 -0.023392,-0.01393 -0.046522,-0.02766 -0.069798,-0.04055 0.054187,-0.133236 0.07125,-0.270696 0.051176,-0.393629 0.098249,-0.0038 0.194577,-0.03183 0.2800316,-0.08228 0.067382,0.02737 0.152877,-0.0028 0.2019336,-0.07568 0.03563,-0.05297 0.042835,-0.115138 0.024906,-0.165291 0.066454,-0.129663 0.08076,-0.274981 0.048567,-0.409539 0.4889015,-0.07392 1.0711384,0.07183 1.0793941,0.07397 0.04701,0.01211 0.094922,-0.01627 0.1069802,-0.06326 0.012105,-0.04703 -0.016337,-0.09499 -0.063216,-0.107013 -0.036696,-0.0092 -0.6566179,-0.164624 -1.190639,-0.06948 C 4.1232016,10.961551 4.063612,10.896499 3.9883167,10.845844 3.9103445,10.793387 3.8244854,10.761934 3.7373241,10.750112 3.6255579,10.217796 3.2457504,9.6988743 3.2231483,9.6683662 3.1942507,9.6294726 3.1392154,9.6212087 3.1001826,9.6501178 c -0.038995,0.028935 -0.047169,0.083928 -0.018239,0.1229718 0.00518,0.00695 0.3640436,0.4966654 0.4775567,0.9802694 -0.1296358,0.02163 -0.2520603,0.08541 -0.3443533,0.187873 -0.051194,0.0044 -0.1031735,0.03447 -0.1373856,0.08531 -0.044775,0.06655 -0.044586,0.147513 -0.00582,0.200838 -0.020258,0.105943 -0.010534,0.214825 0.025759,0.314978 -0.1217234,0.0278 -0.2429345,0.09564 -0.3460803,0.196442 -0.023504,-0.01937 -0.048024,-0.038 -0.073085,-0.05678 -0.094066,-0.07048 -0.211125,-0.158242 -0.3268287,-0.324292 -0.2352802,-0.337671 0.023421,-0.976943 0.026058,-0.983377 0.018496,-0.04482 -0.00265,-0.09662 -0.047795,-0.114702 -0.04483,-0.0185 -0.096171,0.0028 -0.1146916,0.04766 -0.012325,0.02977 -0.2980346,0.734332 -0.0078,1.150905 0.1318727,0.189273 0.2669981,0.290524 0.3656309,0.364469 0.02523,0.01887 0.046622,0.03526 0.065556,0.0507 -5.678e-4,8.54e-4 -0.00124,0.0016 -0.00181,0.0023 -0.1320668,0.196307 -0.171454,0.421338 -0.1240332,0.604739 -0.065814,0.01595 -0.1310939,0.04567 -0.1924017,0.08675 -0.2306458,-0.104872 -0.4908665,-0.06295 -0.7057394,-0.0284 -0.1090817,0.0175 -0.2121194,0.03405 -0.2815056,0.02509 -0.1436142,-0.01844 -0.4299667,-0.356646 -0.58743979,-0.590799 -0.0270942,-0.04029 -0.0817045,-0.05098 -0.12199567,-0.02395 -0.0402695,0.02704 -0.0509396,0.08168 -0.0238849,0.121931 0.0561591,0.08357 0.29899576,0.43302 0.53367536,0.590904 0.060699,0.04084 0.1208581,0.0689 0.1770962,0.07618 0.094679,0.01216 0.2099212,-0.0063 0.3319809,-0.0259 0.1726446,-0.02769 0.3627142,-0.05739 0.5297768,-0.01148 -0.01652,0.01972 -0.032465,0.04022 -0.047248,0.0622 -0.1132032,0.168258 -0.1462672,0.361629 -0.1047072,0.519889 -0.00787,-4.83e-4 -0.015923,-1.77e-4 -0.023824,-5.08e-4 -0.2565624,-0.212735 -0.5032751,-0.04219 -0.7015445,0.09588 -0.1003498,0.06987 -0.2041395,0.142183 -0.30223265,0.166257 -0.22721786,0.05583 -0.54162683,-0.166946 -0.64358594,-0.257468 -0.0364265,-0.03171 -0.0918061,-0.02898 -0.12407247,0.0073 -0.0322777,0.03622 -0.0290636,0.09169 0.007177,0.123997 0.006328,0.0054 0.0624949,0.05508 0.14864802,0.113031 0.15847878,0.106619 0.41813671,0.24173 0.65377884,0.183828 0.1090012,-0.02674 0.2092184,-0.08874 0.3057877,-0.154727 -0.088357,0.07858 -0.1710741,0.171961 -0.2433331,0.279364 -0.32515147,0.483303 -0.31854965,1.056875 0.01475,1.28111 0.3332985,0.224232 0.8670775,0.01421 1.1922296,-0.469093 0.058566,-0.08706 0.1059723,-0.177043 0.1430013,-0.267357 -0.017011,0.09142 -0.026951,0.18312 -0.013967,0.271551 0.035171,0.240079 0.2581667,0.429687 0.4166466,0.536307 0.086122,0.05794 0.1531994,0.0914 0.1607149,0.0951 0.043578,0.02139 0.096212,0.0035 0.117642,-0.04017 0.021409,-0.04361 0.00301,-0.09618 -0.040168,-0.117643 -0.1222217,-0.05995 -0.4468549,-0.266698 -0.4809336,-0.499079 -0.014668,-0.09993 0.013172,-0.223279 0.040108,-0.342609 0.052558,-0.23294 0.1164084,-0.52155 -0.1660079,-0.680225 -0.00308,-0.007 -0.00567,-0.01418 -0.00893,-0.02097 0.1622534,-0.02116 0.3289045,-0.124641 0.4421045,-0.2929 0.013898,-0.02069 0.026344,-0.04184 0.037882,-0.06313 0.099409,0.136168 0.1426811,0.318554 0.1810088,0.484317 0.027822,0.120444 0.054124,0.234208 0.1011552,0.317298 0.027932,0.04935 0.076513,0.09452 0.1372417,0.135367 0.2346554,0.157873 0.6499076,0.251096 0.7484923,0.271589 0.04748,0.0099 0.094009,-0.02061 0.1038802,-0.06811 z"
       id="path835" />
    <path
       d="M 5.0845692,3.3661553 C 5.0459077,3.3367981 4.9907955,3.3442922 4.9614212,3.3829922 4.79088,3.607764 4.4854757,3.9288897 4.3411692,3.9391572 4.2713677,3.9441522 4.1694211,3.9217364 4.0614793,3.8979641 3.852524,3.8520257 3.6013404,3.7960795 3.3677823,3.8814077 3.3083388,3.8360456 3.2441102,3.8021408 3.1785306,3.7822099 3.2363792,3.6018254 3.2099391,3.374907 3.0893271,3.1713604 c -5.904e-4,-0.00108 -0.00135,-0.00206 -0.0022,-0.00329 0.017582,-0.012259 0.036395,-0.025281 0.058552,-0.039893 0.1027197,-0.068203 0.2434047,-0.1615261 0.3859026,-0.3429348 0.3136038,-0.399275 0.068693,-1.1190212 0.058105,-1.1494615 -0.015916,-0.045839 -0.066045,-0.070053 -0.1118459,-0.054183 -0.045789,0.016068 -0.070085,0.066072 -0.054185,0.1118445 0.00213,0.00647 0.224618,0.6586772 -0.030314,0.9832068 C 3.268316,2.8357957 3.1464161,2.916694 3.0484843,2.9817018 3.0258621,2.9968499 3.0035329,3.0118472 2.9818998,3.0273369 2.8848216,2.9212055 2.7679932,2.846791 2.6483448,2.8121538 2.6870851,2.7217851 2.7031165,2.622751 2.6942312,2.5239141 2.7478746,2.4748036 2.7573232,2.3846352 2.7125558,2.3090447 2.6800076,2.2541271 2.6269508,2.2209347 2.5739572,2.2156002 2.4853717,2.0999231 2.3602625,2.0246257 2.2249125,1.9959443 2.368005,1.5226438 2.7495646,1.0593349 2.7550412,1.052797 2.7861573,1.0155361 2.7810906,0.96008064 2.7438255,0.92901974 2.7065444,0.89789954 2.651019,0.90300164 2.6200375,0.94018154 2.5959765,0.96937654 2.1895039,1.4625691 2.0462135,1.9857315 1.9615185,1.9936615 1.8771859,2.0195585 1.799115,2.0658215 1.718267,2.1137285 1.6530053,2.1777747 1.6049146,2.2514236 1.0761574,2.1238781 0.44444335,2.2441736 0.40718731,2.251493 c -0.0475338,0.0094 -0.0786194,0.055565 -0.0692639,0.1032285 0.0094,0.047639 0.0555564,0.078628 0.10323825,0.069258 0.008454,-0.00172 0.60484524,-0.1156118 1.09035604,-0.010553 -0.036108,0.1263701 -0.031053,0.2643199 0.021875,0.3916593 -0.018001,0.048127 -0.013154,0.1079813 0.01808,0.1607038 0.040889,0.069006 0.1140943,0.1035882 0.1788967,0.091464 0.086991,0.063772 0.1895062,0.1017258 0.2955419,0.111936 -0.02714,0.1218722 -0.017896,0.2604686 0.028873,0.3968972 -0.027585,0.01291 -0.054936,0.027064 -0.082654,0.041637 C 1.888096,3.6624309 1.7585837,3.7304864 1.5589443,3.7637135 1.1529713,3.8312743 0.6866321,3.3232164 0.68195294,3.3180729 c -0.0325418,-0.035944 -0.0884038,-0.03908 -0.12411327,-0.00607 -0.0359514,0.032549 -0.0387515,0.088063 -0.006185,0.1240461 0.021598,0.023911 0.53531303,0.5843869 1.03613803,0.5010598 0.2275547,-0.037863 0.377006,-0.1164415 0.4861285,-0.1737892 0.027873,-0.014688 0.051858,-0.026973 0.073931,-0.037447 5.276e-4,8.794e-4 9.133e-4,0.00181 0.0013,0.00262 0.1206153,0.2035494 0.3069545,0.3357158 0.4929555,0.371609 -0.013844,0.066289 -0.015022,0.1380061 -0.00423,0.211012 C 2.4441509,4.4744152 2.3703173,4.7274387 2.3092904,4.93634 2.2782739,5.0423733 2.2489938,5.1425398 2.2111179,5.2013628 2.132818,5.3231586 1.7044395,5.4366177 1.425361,5.478338 1.377342,5.485518 1.344245,5.53025 1.351364,5.578243 1.358504,5.626221 1.403271,5.659311 1.451239,5.652153 1.550825,5.637302 1.9706796,5.567973 2.2140121,5.4237803 2.2769531,5.3864883 2.328119,5.3441963 2.3588339,5.2965278 2.4104569,5.2162348 2.4432509,5.1042248 2.477941,4.9855686 2.527038,4.817752 2.5817984,4.6333345 2.6949739,4.5021516 c 0.010718,0.023386 0.022392,0.046586 0.035897,0.069373 0.1033774,0.1744673 0.263836,0.2873329 0.4246141,0.3177279 -0.00382,0.0069 -0.00699,0.014306 -0.010685,0.021299 -0.3022663,0.1404134 -0.2541307,0.4364467 -0.2145325,0.6747869 0.020032,0.120626 0.040793,0.2454075 0.020431,0.3443378 -0.047106,0.2291855 -0.3832723,0.4175321 -0.5087959,0.4707649 -0.044277,0.019286 -0.065582,0.070479 -0.046663,0.1151946 0.018856,0.044701 0.070338,0.065608 0.1150738,0.046742 0.0076,-0.00339 0.076573,-0.032802 0.1658944,-0.08574 C 2.84053,6.3792667 3.0740167,6.2027412 3.1228673,5.9650577 3.1455037,5.8551309 3.1325232,5.7380028 3.1143758,5.6224581 3.1474222,5.735991 3.1962574,5.8507832 3.2622463,5.9621485 3.5591927,6.4632754 4.0800711,6.7035129 4.4256637,6.4987306 4.771253,6.2939482 4.8106827,5.7216942 4.5137365,5.2205668 4.4602438,5.130301 4.3993207,5.0488597 4.3336443,4.976649 4.4089117,5.0312545 4.487468,5.0795934 4.5729113,5.1058246 4.8048452,5.1771101 5.0718159,5.0570896 5.2361402,4.9597183 5.3254383,4.9068044 5.3844512,4.8605828 5.3910189,4.855383 5.429044,4.8252051 5.4354784,4.769988 5.4052341,4.7318874 5.3750359,4.6938314 5.3196576,4.6878841 5.2817387,4.7176692 5.1751299,4.8023257 4.8490515,5.0067866 4.6245393,4.9378188 4.5279873,4.9081728 4.4285297,4.8300817 4.3323141,4.754532 4.144485,4.6070749 3.9112224,4.4255228 3.6466842,4.6124887 c -0.00765,-2.216e-4 -0.015242,-9.68e-4 -0.022772,-9.318e-4 0.050534,-0.1556285 0.028605,-0.3505642 -0.074776,-0.5250288 -0.012718,-0.021434 -0.026481,-0.041753 -0.040758,-0.061312 0.1656561,-0.031336 0.3489594,0.00787 0.5151268,0.044403 0.1207263,0.026571 0.2347666,0.051647 0.3300003,0.044835 0.056562,-0.00404 0.1182119,-0.028535 0.1811719,-0.06585 C 4.7779902,3.904431 5.0404314,3.5693945 5.101257,3.4891502 5.130579,3.4505162 5.122994,3.3953952 5.08433,3.3660911 Z"
       id="path837" />
  </g>
</svg>
