<svg enable-background="new 0 0 1000 1000" height="16" viewBox="0 0 16 16" width="16" xmlns="http://www.w3.org/2000/svg"><path d="m2.6718526.1790743c-.1747945.18199965-.2120994.2824189-.1809849.53961013.00619.06274154.3057685.71538477.6677384 1.43699457.6490046 1.3052864.6613855 1.3241253 1.4913749 2.2904761.4618294.5396102.8299898 1.0040288.8174461 1.0417065-.012543.037678-.3494262.0689666-.8112558.0815808l-.7863316.0188383-1.2605418-.6400292c-1.0982904-.545999-1.2980092-.6275794-1.4851845-.5961267-.44276971.0689666-.64867882.5899017-.37418764.9412871.08112558.1066442.61772734.414127 1.39151554.8095791l1.2543513.6400293 1.1481388.031452c.6926625.018839 1.1606824.056517 1.1732257.094194.012545.037678-.4742098.3137078-1.0733663.6149654l-1.0921003.546h-1.5350328c-1.65997925 0-1.8034966.025064-1.94701395.3451605-.11859322.257355-.08731588.4518047.10604971.671482l.18114789.2067359h1.77221935 1.7660289l1.2043402-.6149655c1.1856066-.6023517 1.491375-.6965459 1.179416-.3639993-.0873157.0878054-.8299895.9727398-1.6474355 1.9641547l-1.4913751 1.807219-.636461 1.600156c-.3870571.979128-.6366242 1.688124-.6366242 1.82622 0 .163161.049849.269805.1809851.407902.2120994.213289.4492857.238518.72394.06896.1622511-.100425.2683008-.326322.8050654-1.681735l.6177274-1.562472.7550544-.922447c.4181714-.508322.773788-.922449.8050655-.922449.024924-.0064.043658.03145.043658.08158 0 .213289.4805632 1.016642.8050656 1.349189.4618292.470643.8487234.652643 1.3791347.652643.5304115 0 .9173056-.182 1.3791351-.652643.3245023-.332547.8049028-1.1359.8049028-1.349189 0-.05013.01873-.0878.04985-.08158.02492 0 .380704.414127.798712.922449l.755054.922447.617728 1.562479c.536602 1.355413.642814 1.581315.804902 1.681735.274655.169386.511678.144322.72394-.06896.130974-.138097.180985-.244741.180985-.407902 0-.138096-.249566-.847092-.636461-1.826057l-.636461-1.600158-1.491538-1.807383c-.817448-.9914189-1.5601215-1.8763533-1.6474375-1.9641587-.0873159-.1004193-.1247835-.1819996-.0936691-.2070635.0374676-.0250638.6364616.2447412 1.3292866.5899017l1.266732.6338043 1.709827-.018839 1.709828-.018839.180985-.2070635c.193366-.219677.224643-.4141268.10605-.6714818-.143518-.3200966-.287035-.3451605-1.946851-.3451605h-1.535196l-1.0921-.5459989c-.598994-.3012577-1.085747-.5772878-1.073366-.6149656.01254-.037678.480563-.075355 1.173225-.094194l1.148139-.031452 1.254351-.6400296c1.503919-.765513 1.653627-.9162239 1.460097-1.4243812-.06239-.169386-.349425-.3513855-.561688-.3513855-.06858 0-.686473.2824188-1.379134.6275792l-1.247999.6338043-.786168-.0188389c-.461667-.0124507-.798713-.0439028-.811256-.0815808-.01238-.037678.355616-.5019324.817445-1.0417065.82999-.9663508.83618-.9789647 1.503919-2.3155399.755054-1.51857505.792522-1.66928583.46802-1.96415476-.2121-.18822465-.418172-.21345233-.686473-.07535538-.143517.07535538-.311959.35138547-.83618 1.39931684-.580259 1.1549033-.711233 1.3681918-1.197987 1.9392546l-.549145.6400301-.2559201-.2383524c-.1435173-.1317081-.3306926-.288644-.4181715-.3451605-.1122399-.0753555-.1684414-.1757746-.1933656-.3639993-.0436579-.3074827-.224643-.5772879-.4118182-.6023517-.1185932-.0188389-.1311366.0062254-.1311366.2824189v.3073189h-.6239176-.6240807v-.3074826c0-.276194-.012542-.301258-.1309739-.2824191-.1871752.0250638-.3681602.294869-.4118181.6023518-.0249242.1882247-.0811257.288644-.1933657.3639993-.0873159.0565165-.2746541.2132884-.4181713.3451604l-.2559203.2385163-.5491453-.6400295c-.4867535-.5710628-.6177274-.7843513-1.1981499-1.9390908-.5242212-1.04793136-.6926626-1.32412525-.8361798-1.39931681-.2744914-.14432196-.4867536-.1192581-.6926628.08780541z" fill="#b3b600" stroke-width=".001634"/></svg>
