<svg enable-background="new 0 0 220 224.0026" height="16" viewBox="0 0 16 16" width="16" xmlns="http://www.w3.org/2000/svg"><g transform="matrix(.0709825 0 0 .0709825 .214577 .030661)"><path d="m123.2595 165.819c-2.5232 0-4.9492.5352-7.2068 1.5936l-3.09 1.4416-1.914-2.8204c-2.5644-3.7772-6.8612-6.0312-11.494-6.0312-7.5976 0-13.7776 6.0352-13.7776 13.4532v4.3672l-4.3516-.3164c-.3708-.0312-.748-.0508-1.1288-.0508-6.7812 0-12.2968 5.3828-12.2968 12 0 6.2384 4.9844 11.496 11.3496 11.9688l3.1288.2304.5196 3.0936c1.0956 6.5236 6.8124 11.254 13.5936 11.254 7.598 0 13.7796-6.0352 13.7796-13.4532 0-.5272-.0312-1.0468-.09-1.5584l-.826-7.1564 6.5096 3.082c2.2872 1.086 4.7404 1.6328 7.2948 1.6328 9.2308 0 16.7404-7.3396 16.7404-16.3632-.0001-9.0236-7.5097-16.3672-16.7404-16.3672z" fill="none"/><g fill="#ce1d1d"><path d="m123.2595 157.819c-2.6188 0-5.1696.3944-7.6152 1.1756-4.0956-4.4256-9.908-6.992-16.0896-6.992-10.6604 0-19.5568 7.586-21.42 17.5664-10.1776 1.0664-18.1348 9.578-18.1348 19.8868 0 9.406 6.7344 17.4724 15.8008 19.5076 2.7892 8.8672 11.1076 15.0392 20.7908 15.0392 10.8108 0 19.8068-7.7968 21.4944-17.9844 1.6876.3516 3.414.5312 5.1736.5312 13.6428 0 24.7404-10.9296 24.7404-24.3632-.0001-13.4376-11.0976-24.3672-24.7404-24.3672zm0 40.7304c-2.5544 0-5.0076-.5468-7.2948-1.6328l-6.5096-3.082.826 7.1564c.0588.5116.09 1.0312.09 1.5584 0 7.418-6.1816 13.4532-13.7796 13.4532-6.7812 0-12.498-4.7304-13.5936-11.254l-.5196-3.0936-3.1288-.2304c-6.3652-.4728-11.3496-5.7304-11.3496-11.9688 0-6.6172 5.5156-12 12.2968-12 .3808 0 .758.0196 1.1288.0508l4.3516.3164v-4.3672c0-7.418 6.18-13.4532 13.7776-13.4532 4.6328 0 8.9296 2.254 11.494 6.0312l1.914 2.8204 3.09-1.4416c2.2576-1.0584 4.6836-1.5936 7.2068-1.5936 9.2308 0 16.7404 7.3436 16.7404 16.3672-.0001 9.0236-7.5097 16.3632-16.7404 16.3632z"/><path d="m58.5038 99.9442c.7304 1.3164 2.0936 2.0584 3.5 2.0584.656 0 1.324-.16 1.9392-.504 1.93-1.074 2.6272-3.5076 1.5528-5.4376l-40-72c-1.0684-1.9296-3.504-2.6328-5.4392-1.5544-1.93 1.074-2.6272 3.5076-1.5528 5.4376z"/><path d="m86.1055 138.9126c.4296 1.844 2.074 3.09 3.8904 3.09.3008 0 .6076-.0352.9124-.1056 2.152-.5 3.488-2.6524 2.986-4.8044l-28-120c-.502-2.1484-2.66-3.4844-4.8028-2.9844-2.152.5-3.488 2.6524-2.986 4.8044z"/><path d="m95.9958 88.0026c.084 0 .168-.004.254-.008 2.2052-.1364 3.8808-2.0348 3.742-4.242l-4-64c-.1384-2.2072-2.0076-3.8048-4.242-3.742-2.2052.1364-3.8808 2.0348-3.742 4.242l4 64c.1328 2.1212 1.8925 3.75 3.988 3.75z"/><path d="m105.5331 133.9754c.1584.0192.3164.0272.4728.0272 2 0 3.7264-1.496 3.9668-3.5312l8-68c.2576-2.1952-1.3108-4.1836-3.506-4.4416-2.1816-.2772-4.1796 1.3088-4.4396 3.504l-8 68c-.2577 2.1952 1.3108 4.1836 3.506 4.4416z"/><path d="m142.625 95.8542-28 44c-1.1856 1.8632-.6368 4.336 1.2264 5.5232.666.422 1.41.6252 2.1444.6252 1.3224 0 2.6152-.6564 3.3792-1.8516l28-44c1.1852-1.8632.6364-4.336-1.2268-5.5236-1.8632-1.1796-4.3359-.6328-5.5232 1.2268z"/><path d="m151.7498 89.311c.6896.4688 1.4728.6916 2.246.6916 1.2792 0 2.5372-.6132 3.3124-1.75l34-50c1.2424-1.828.7676-4.3164-1.0584-5.5584-1.828-1.2424-4.3144-.766-5.5584 1.0584l-34 50c-1.2424 1.828-.7676 4.3164 1.0584 5.5584z"/><path d="m124.4998 101.7098c.492.1992 1 .2928 1.498.2928 1.582 0 3.08-.9452 3.7108-2.5l38-94c.8284-2.0508-.162-4.3788-2.2088-5.2072-2.0528-.8356-4.3788.1644-5.2088 2.2072l-38 94c-.8284 2.0508.162 4.3788 2.2088 5.2072z"/><path d="m184.955 89.409-46 54c-1.4316 1.6796-1.2304 4.2068.4512 5.6404.752.6408 1.6736.9532 2.5916.9532 1.1308 0 2.256-.4764 3.0468-1.4064l46-54c1.4316-1.6796 1.2304-4.2068-.4512-5.6404-1.6776-1.4336-4.2048-1.2304-5.6384.4532z"/><path d="m183.5994 134.8034-32 24c-1.7676 1.324-2.1248 3.832-.7988 5.5976.7852 1.0508 1.9864 1.6016 3.2032 1.6016.834 0 1.6756-.2616 2.3964-.8008l32-24c1.7676-1.3244 2.1248-3.832.7988-5.5976-1.3224-1.7696-3.826-2.1252-5.5996-.8008z"/><path d="m219.1582 113.5454c-1.3596-1.742-3.8772-2.0624-5.6136-.6992l-18 14c-1.744 1.3556-2.0584 3.8672-.7032 5.6136.7892 1.0116 1.9688 1.5428 3.1604 1.5428.8592 0 1.7244-.2736 2.4532-.8436l18-14c1.744-1.3556 2.0584-3.8672.7032-5.6136z"/><path d="m39.6463 102.7682c-1.7852 1.2968-2.1816 3.8008-.8808 5.586l32 44c.7832 1.078 2.002 1.6484 3.2384 1.6484.8144 0 1.6384-.25 2.3496-.7656 1.7852-1.2968 2.1816-3.8008.8808-5.586l-32-44c-1.3009-1.7892-3.8009-2.1836-5.588-.8828z"/><path d="m26.9762 96.6238c.7912.91 1.9044 1.3788 3.0256 1.3788.9276 0 1.8612-.3204 2.6172-.9764 1.67-1.4492 1.8496-3.9728.4044-5.6448l-26-30c-1.4456-1.66-3.9728-1.8516-5.6428-.4024-1.67 1.4492-1.8496 3.9728-.4044 5.6448z"/><path d="m60.7167 155.069-54-50c-1.6212-1.504-4.1504-1.4064-5.6524.2148-1.5 1.6212-1.4024 4.1524.2188 5.6524l54 50c.7696.7148 1.744 1.0664 2.7168 1.0664 1.0744 0 2.1464-.4296 2.9356-1.2812 1.5-1.6212 1.4023-4.1524-.2188-5.6524z"/><path d="m47.4355 166.2682-26-10c-2.0588-.7852-4.3732.2344-5.17 2.2968-.7928 2.0624.2364 4.3792 2.2988 5.172l26 10c.4728.1796.9572.2656 1.4356.2656 1.6056 0 3.1212-.9728 3.7344-2.5624.7928-2.0628-.2365-4.3792-2.2988-5.172z"/></g></g></svg>
