<svg viewBox="0 0 16 16" xmlns="http://www.w3.org/2000/svg"><path d="m8.693.16c.023.012.043.031.066.032.546.044 1.088.144 1.614.298.084.023.118.065.125.146.01.139.027.275.037.414-.004.044.025.084.069.093.725.247 1.402.615 2.004 1.088.319.245.613.521.881.822.03.045.089.062.138.038.129-.044.262-.075.39-.118.046-.021.099-.003.126.039.28.347.531.716.751 1.103.366.642.633 1.336.789 2.058.078.366.116.741.171 1.113.006.036.009.074.015.121l-.829.058v.289c-.003.222-.002.444-.015.666-.011.178-.037.356-.059.533-.007.062.014.084.078.094.256.038.511.084.779.129-.142.878-.435 1.725-.869 2.503l-.769-.424c-.25.448-.55.868-.891 1.251l.652.586c-.058.066-.111.129-.168.19-.417.43-.878.815-1.377 1.149-.096.065-.202.065-.306.069-.431.016-.861-.01-1.286-.079-.032-.004-.063.001-.092.013-.885.345-1.831.511-2.781.487-.025 0-.052 0-.09 0-.015.299-.028.595-.044.904-.998-.046-1.978-.277-2.89-.683-.991-.439-1.845-1.069-2.582-1.856l.011-.024c.027-.001.055-.004.083-.004.336 0 .672-.003 1.008.002.056.003.11.023.154.058.84.695 1.782 1.189 2.841 1.453.045.012.09.022.135.032l.15.033c.039-.183.077-.365.115-.551l.401.047c.427.059.859.075 1.288.051.439-.024.873-.093 1.298-.204.833-.221 1.613-.61 2.293-1.141.737-.569 1.343-1.292 1.776-2.118.342-.648.569-1.35.673-2.075.059-.43.08-.864.061-1.298-.021-.531-.149-1.042-.293-1.553-.262-.936-.746-1.745-1.394-2.46-.784-.872-1.795-1.511-2.919-1.846-.403-.124-.819-.206-1.239-.244-.028-.008-.056-.013-.085-.013-.179.033-.293-.078-.421-.174-.22-.163-.447-.32-.681-.462-.059-.035-.157-.017-.235-.007-.525.059-1.042.175-1.542.347-.771.267-1.489.663-2.125 1.173-.079.063-.156.128-.243.197l-.495-.339c.193-.155.37-.308.556-.449.866-.66 1.865-1.123 2.928-1.356.365-.081.74-.113 1.112-.169.02-.007.04-.018.058-.032z" fill="#b3b3b3"/><g fill="#d23538"><path d="m7.469 6.026c.375.306.709.648.956 1.068.125.208.215.435.267.671-.134-.035-.263-.069-.394-.096-.62-.119-1.261-.065-1.853.156-.637.234-1.29.407-1.966.477-.611.064-1.215.043-1.803-.153-.7-.235-1.226-.684-1.594-1.322-.209-.357-.346-.743-.449-1.141-.004-.019-.005-.04-.006-.06.143.159.319.284.515.367.254.112.522.153.795.16.419.011.839.011 1.257.038.559.035 1.078.198 1.545.517.009.007.019.012.049.028-.002-.053-.009-.105-.019-.157-.057-.193-.195-.327-.342-.449-.293-.243-.628-.413-.973-.564-.17-.075-.34-.149-.515-.209-.673-.224-1.093-.692-1.316-1.35-.163-.48-.2-.977-.171-1.481.002-.025.006-.05.011-.075.108.135.209.274.324.401.478.516 1.068.862 1.717 1.116.536.202 1.094.339 1.663.408.03.001.06-.013.077-.038.255-.521.664-.885 1.174-1.14.577-.288 1.197-.38 1.835-.375.009.001.018.004.025.007-.243.677-.487 1.354-.73 2.037l.657.247.836.313c.591.219.967.637 1.13 1.244.032.119.038.262.11.35.072.087.209.113.319.165l2.709 1.29c.374.178.515.656.246.973-.332.389-.698.751-1.197.935-.375.14-.755.153-1.147.096-.573-.084-1.148-.157-1.721-.232-.025-.004-.054.017-.081.027.02.028.035.066.06.08.456.249.915.495 1.373.743.12.065.17.164.124.277-.021.055-.067.121-.118.139-.289.111-.576.227-.875.306-.337.088-.676.039-1.007-.076-.521-.181-1.046-.369-1.576-.531-.58-.178-1.15-.113-1.695.151-.457.222-.903.471-1.37.672-1.004.431-1.989.395-2.92-.217-.181-.12-.339-.275-.508-.414l.016-.028c.112.01.224.022.336.029.702.04 1.356-.135 1.961-.479.43-.244.847-.512 1.274-.76.429-.25.883-.432 1.378-.5.548-.076 1.084-.003 1.611.147.116.031.228.068.339.111.077.033.129.018.192-.034.155-.135.317-.261.487-.378.509-.329 1.057-.382 1.639-.224.462.128.93.238 1.397.349.234.057.446-.002.631-.156.045-.034.06-.069.03-.124-.044-.079-.078-.162-.116-.244-.094-.201-.266-.357-.477-.429-.62-.229-1.238-.461-1.862-.685-.072-.025-.1-.066-.124-.134-.12-.34-.244-.68-.373-1.016-.066-.166-.196-.3-.36-.371-.447-.208-.916-.35-1.395-.467l-.032-.011-.004.008z"/><path d="m.152 9.51c.486.034.923-.132 1.353-.324.283-.127.573-.218.888-.197.414.027.743.215 1.009.546-.04.011-.08.023-.118.038-.289.131-.579.262-.869.396-.243.112-.486.21-.753.253-.502.082-.924-.08-1.282-.427-.086-.083-.164-.174-.246-.262z"/><path d="m10.015 3.618-.573 1.55-1.142-.441c.244-.532 1.18-1.139 1.715-1.109z"/></g></svg>
