<svg enable-background="new 0 0 395.304 395.304" viewBox="0 0 16 16" xmlns="http://www.w3.org/2000/svg"><g transform="matrix(.041708 0 0 .041708 -.628775 .285106)"><path d="m392.152 341.5v-15h-326.5v-326.5h-15v326.5h-29.5v15h29.5v29.5h15v-29.5z" fill="#484848"/><path d="m229.731 307.947c37.193 0 71.676-30.068 97.096-84.667 24.571-52.773 38.103-122.773 38.103-197.105h-15c0 72.19-13.034 139.941-36.701 190.774-22.818 49.008-52.472 75.998-83.498 75.998s-60.68-26.99-83.498-75.998c-23.667-50.833-36.701-118.584-36.701-190.774h-15c0 74.332 13.532 144.332 38.103 197.105 25.421 54.599 59.904 84.667 97.096 84.667z" fill="#f44336"/></g></svg>
