<svg enable-background="new 0 0 466.921 466.921" height="16" viewBox="0 0 16 16" width="16" xmlns="http://www.w3.org/2000/svg"><g fill="#55a9da"><path d="m11.384 1.028.161 1.028h4.455v-1.028z"/><path d="m4.814 1.028h-4.607v1.028h4.446z"/><path d="m11.57 0h-2.946v6.439c.753.085 1.467.355 2.091.793.342.24.645.522.903.838.023-.013.046-.027.069-.04.336-.187.703-.314 1.082-.377z"/><path d="m7.583 0h-2.955l-1.199 7.652c.382.061.753.189 1.091.378.023.013.046.027.069.04.258-.316.561-.598.903-.838.624-.438 1.338-.708 2.091-.793z"/><path d="m15.566 10.864c0-1.23-1.01-2.227-2.256-2.227-.807 0-1.514.418-1.913 1.047h-.035c-.487-1.311-1.762-2.246-3.259-2.246-1.496 0-2.771.935-3.258 2.246h-.035c-.399-.629-1.106-1.047-1.913-1.047-1.246 0-2.256.997-2.256 2.227 0 1.008.678 1.859 1.608 2.134l.004.056c.915-.031.94-.655 1.902-.655.987 0 .987.657 1.974.657s.987-.657 1.974-.657.987.657 1.974.657.987-.657 1.974-.657c.963 0 .987.624 1.903.655l.003-.056c.931-.274 1.609-1.126 1.609-2.134z"/><path d="m14.026 13.567c-.652 0-.998-.228-1.277-.412-.226-.149-.362-.239-.697-.239-.336 0-.472.09-.698.239-.279.184-.625.412-1.277.412-.651 0-.998-.228-1.276-.412-.226-.149-.362-.239-.698-.239-.335 0-.472.09-.698.239-.278.183-.624.412-1.276.412-.651 0-.998-.228-1.276-.412-.226-.149-.362-.239-.698-.239s-.472.09-.698.239c-.278.184-.625.412-1.276.412s-.998-.228-1.276-.412c-.226-.149-.363-.239-.698-.239v-1.028c.651 0 .998.228 1.276.412.226.149.362.239.698.239s.472-.09.698-.239c.278-.184.625-.412 1.276-.412.652 0 .998.228 1.276.412.226.149.363.239.698.239.336 0 .472-.09.698-.239.278-.184.625-.412 1.276-.412.652 0 .998.228 1.277.412.225.149.362.239.697.239.336 0 .472-.09.698-.239.279-.184.625-.412 1.277-.412.651 0 .998.228 1.276.412.218.144.362.239.698.239.335 0 .48-.095.698-.239.278-.184.625-.412 1.276-.412v1.028c-.336 0-.48.095-.698.239-.278.184-.625.412-1.276.412z"/><path d="m14.026 16c-.652 0-.998-.229-1.277-.412-.226-.149-.362-.239-.697-.239-.336 0-.472.09-.698.239-.279.183-.625.412-1.277.412-.651 0-.998-.229-1.276-.412-.226-.149-.362-.239-.698-.239-.335 0-.472.09-.698.239-.278.183-.624.412-1.276.412-.651 0-.998-.229-1.276-.412-.226-.149-.362-.239-.698-.239s-.472.09-.698.239c-.278.183-.625.412-1.276.412s-.998-.229-1.276-.412c-.226-.149-.363-.239-.698-.239v-1.028c.651 0 .998.228 1.276.412.226.149.362.239.698.239s.472-.09.698-.239c.278-.184.625-.412 1.276-.412.652 0 .998.228 1.276.412.226.149.363.239.698.239.336 0 .472-.09.698-.239.278-.184.625-.412 1.276-.412.652 0 .998.228 1.277.412.225.149.362.239.697.239.336 0 .472-.09.698-.239.279-.184.625-.412 1.277-.412.651 0 .998.228 1.276.412.218.144.362.239.698.239.335 0 .48-.095.698-.239.278-.184.625-.412 1.276-.412v1.028c-.336 0-.48.095-.698.239-.278.183-.625.412-1.276.412z"/></g></svg>