<svg height="16" viewBox="0 0 16 16" width="16" xmlns="http://www.w3.org/2000/svg"><g fill="#97da55" transform="matrix(.02998275 0 0 -.02998275 .346561 15.279146)"><path d="m436.907 108.899c-99.829-99.829-262.207-99.829-362.036 0s-99.829 262.207 0 362.036c9.089 9.089 23.824 9.089 32.913 0s9.089-23.824 0-32.913c-81.652-81.652-81.652-214.558 0-296.21s214.558-81.652 296.21 0 81.652 214.559 0 296.21c-9.089 9.089-9.089 23.824 0 32.913s23.824 9.089 32.913 0c99.829-99.829 99.829-262.207 0-362.036z"/><path d="m371.074 174.725c-63.517-63.544-166.831-63.544-230.378.003-63.547 63.52-63.547 166.834 0 230.382 9.089 9.089 23.824 9.089 32.913 0s9.089-23.824 0-32.913c-45.369-45.369-45.369-119.207-.004-164.553 45.373-45.373 119.21-45.373 164.556-.007 45.373 45.353 45.373 119.191.004 164.56-9.089 9.089-9.089 23.824 0 32.913s23.824 9.089 32.913 0c63.547-63.547 63.547-166.861-.004-230.385z"/><path d="m255.892 220.097c-38.57 0-69.818 31.249-69.818 69.818s31.249 69.818 69.818 69.818c38.57 0 69.818-31.249 69.818-69.818s-31.249-69.818-69.818-69.818zm0 93.09c-12.863 0-23.273-10.409-23.273-23.273s10.41-23.273 23.273-23.273 23.273 10.409 23.273 23.273-10.41 23.273-23.273 23.273z"/></g></svg>
