<svg enable-background="new 0 0 1000 1000" height="16" viewBox="0 0 16 16" width="16" xmlns="http://www.w3.org/2000/svg"><g fill="#0091ff" stroke="#6aadff" transform="matrix(.015641 0 0 .015641 .19788 .099781)"><path d="m258.2 712.3c5.4-3.6 6.8-11 3.2-16.4-3.7-5.4-11-6.8-16.4-3.2-23.6 15.9-35.5 33.7-35.5 52.9 0 69.7 149.7 107.3 290.5 107.3s290.5-37.6 290.5-107.3c0-17.8-10.3-34.4-30.6-49.5-5.2-3.9-12.6-2.8-16.5 2.5-3.9 5.2-2.8 12.6 2.5 16.5 9.6 7.1 21.1 18.2 21.1 30.5 0 39.6-109.6 83.7-266.9 83.7s-266.9-44.1-266.9-83.7c-.1-13.6 13.6-25.6 25-33.3z"/><path d="m870.7 649.5c-6-2.5-12.9.4-15.4 6.4s.4 12.9 6.5 15.4c67.5 27.6 104.6 61.1 104.6 94.4 0 73.5-187.4 152.1-466.4 152.1s-466.4-78.6-466.4-152.1c0-34.4 39.5-68.8 111.1-96.8 6.1-2.4 9.1-9.2 6.7-15.3s-9.3-9.1-15.3-6.7c-82.5 32.4-126.1 73.4-126.1 118.8 0 98.5 215.2 175.7 490 175.7s490-77.2 490-175.7c0-44.1-41.2-84.3-119.3-116.2z"/><path d="m311.2 494.9c0-104.3 188.8-436.3 188.8-436.3s188.8 332 188.8 436.3-84.5 188.8-188.8 188.8c-104.3-.1-188.8-84.6-188.8-188.8z"/></g></svg>
