<?xml version="1.0" encoding="UTF-8" standalone="no"?>
<svg
   xmlns:dc="http://purl.org/dc/elements/1.1/"
   xmlns:cc="http://creativecommons.org/ns#"
   xmlns:rdf="http://www.w3.org/1999/02/22-rdf-syntax-ns#"
   xmlns:svg="http://www.w3.org/2000/svg"
   xmlns="http://www.w3.org/2000/svg"
   xmlns:sodipodi="http://sodipodi.sourceforge.net/DTD/sodipodi-0.dtd"
   xmlns:inkscape="http://www.inkscape.org/namespaces/inkscape"
   viewBox="0 0 16 16"
   version="1.1"
   id="svg835"
   sodipodi:docname="Explosion-595b40b65ba036ed117d1bed.svg"
   width="16"
   height="16"
   inkscape:version="1.0.2 (e86c8708, 2021-01-15)">
  <metadata
     id="metadata841">
    <rdf:RDF>
      <cc:Work
         rdf:about="">
        <dc:format>image/svg+xml</dc:format>
        <dc:type
           rdf:resource="http://purl.org/dc/dcmitype/StillImage" />
        <dc:title></dc:title>
      </cc:Work>
    </rdf:RDF>
  </metadata>
  <defs
     id="defs839" />
  <sodipodi:namedview
     pagecolor="#ffffff"
     bordercolor="#666666"
     borderopacity="1"
     objecttolerance="10"
     gridtolerance="10"
     guidetolerance="10"
     inkscape:pageopacity="0"
     inkscape:pageshadow="2"
     inkscape:window-width="1578"
     inkscape:window-height="1043"
     id="namedview837"
     showgrid="false"
     inkscape:zoom="22.25"
     inkscape:cx="16"
     inkscape:cy="17.797753"
     inkscape:window-x="0"
     inkscape:window-y="23"
     inkscape:window-maximized="0"
     inkscape:current-layer="svg835" />
  <path
     style="line-height:normal;-inkscape-font-specification:Sans;text-indent:0;text-align:start;text-transform:none;stroke-width:0.606359;fill:#fa0000;fill-opacity:1"
     d="M 7.3507701,0.08005618 7.0032646,1.9026804 6.0931312,6.67622 2.9655819,4.9186895 1.8237781,4.2677523 2.254023,5.7866058 3.6605928,10.668635 0.99638406,11.840322 0.00351124,12.27428 0.86400101,13.055405 4.0411941,15.984622 4.6369178,14.834633 2.3202145,12.708238 4.5045348,11.75353 5.0340669,11.536551 4.8354924,10.863916 3.6771407,6.8281054 6.2420621,8.2601671 6.8212379,8.5856357 6.9701689,7.8045111 7.6817277,4.0724711 9.1544891,7.9346985 9.4027073,8.5639378 9.866048,8.2601671 12.795023,6.3507514 11.272618,10.82052 11.0244,11.514853 l 0.562628,0.238677 2.283607,0.998104 -1.95265,2.191489 0.678463,1.063197 2.680757,-2.994311 0.711559,-0.781125 L 15.095178,11.840322 12.464065,10.690333 14.350524,5.1356686 14.946247,3.3564402 13.638965,4.2243565 9.866048,6.6979179 7.9961375,1.772493 Z M 7.9961375,7.6743236 7.5162489,11.796926 5.9276524,9.7139269 6.9867167,13.185592 H 4.8685881 l 2.1181286,1.388666 -1.5885965,1.388666 H 11.222974 L 9.6343776,14.574258 11.752506,13.185592 H 9.6343776 L 10.693442,9.7139269 8.5753133,11.796926 Z"
     overflow="visible"
     font-family="Sans"
     id="path833" />
</svg>
