<?xml version="1.0" encoding="utf-8"?>
<svg version="1.1" x="0px" y="0px" viewBox="0 0 16 16" enable-background="new 0 0 1000 1000" xmlns="http://www.w3.org/2000/svg">
  <g transform="matrix(0.016327, 0, 0, 0.016327, -0.163265, -0.163265)">
    <path d="M 830.546 169.534 C 745.015 83.025 630.256 32 500 32 C 369.76 32 255.554 83.43 169.492 169.492 C 83.43 255.554 32 369.76 32 500 C 32 630.24 83.43 744.446 169.492 830.508 C 255.554 916.57 369.76 968 500 968 C 630.258 968 744.929 917.053 830.467 830.546 C 916.976 745.015 968 630.256 968 500 C 968 369.742 917.053 255.071 830.546 169.534 Z M 500 914 C 387.662 914 281.79 865.653 207.548 792.36 C 134.254 718.121 86 612.337 86 500 C 86 387.662 134.347 281.79 207.64 207.548 C 281.879 134.254 387.663 86 500 86 C 612.338 86 718.21 134.347 792.452 207.64 C 865.746 281.879 914 387.663 914 500 C 914 612.338 865.653 718.21 792.36 792.452 C 718.121 865.746 612.337 914 500 914 Z" style="fill: rgb(92, 207, 111);"/>
    <path d="M696,612.7c0-93.1-88.2-122.5-166.6-151.9c-58.8-19.6-112.7-39.2-112.7-78.4c0-34.3,39.2-58.8,88.2-58.8c63.7,0,112.7,39.2,112.7,39.2c4.9,0,4.9,4.9,9.8,4.9c4.9,0,9.8-4.9,9.8-4.9l34.3-53.9c4.9-4.9,0-9.8,0-14.7c0,0-49-44.1-132.3-53.9v-68.6c0-4.9-4.9-9.8-14.7-9.8h-58.8c-4.9,0-14.7,4.9-14.7,9.8v68.6c-88.2,14.7-147,73.5-147,142.1c0,98,93.1,132.3,171.5,156.8c58.8,19.6,107.8,39.2,107.8,73.5c0,44.1-44.1,63.7-88.2,63.7c-73.5,0-132.3-49-132.3-53.9c-4.9-4.9-4.9-4.9-9.8-4.9c-4.9,0-9.8,0-9.8,4.9l-44.1,53.9c-4.9,4.9-4.9,9.8,0,14.7c0,0,53.9,53.9,151.9,68.6v68.6c0,4.9,4.9,9.8,14.7,9.8h58.8c9.8,0,14.7-4.9,14.7-9.8v-68.6C632.3,749.9,696,691.1,696,612.7z" style="fill: rgb(92, 207, 111);"/>
  </g>
</svg>