<svg height="16" viewBox="0 0 16 16" width="16" xmlns="http://www.w3.org/2000/svg"><g stroke="#0000c8"><path d="m12.849457 10.792789-1.966528-5.1132631c.439158-.1265263.763368-.5277894.763368-1.0071577 0-.5804211-.47221-1.0526316-1.05263-1.0526316-.425474 0-.7909476.2551579-.956632.6193684l-4.9404201-1.4395788c.0002102-.00737.00233-.014316.00233-.021894-.0000143-.5804217-.4722247-1.0526322-1.0526457-1.0526322s-1.0526313.4722105-1.0526313 1.0526315c0 .5014736.353052.9204209.8231578 1.025684l-.8056845 8.2568425c-.4882102.09116-.8595787.518947-.8595787 1.033262 0 .58042.4722103 1.052631 1.0526313 1.052631.5764215 0 1.0452634-.466105 1.0515786-1.041263l7.8715786-.871157c.158527.380631.534106.649263.971578.649263.580422 0 1.052634-.47221 1.052634-1.052632 0-.528842-.393476-.963579-.902106-1.037473zm-2.25579-6.7519997c.34821 0 .63158.2833684.63158.6315789 0 .3482104-.28337.6315787-.63158.6315787s-.6315801-.2833683-.6315801-.6315787c0-.042736.00466-.086947.014106-.1313685v-.0002104c.06084-.2852632.3143161-.5.6174741-.5zm-7.5789465-1.2631578c0-.3482105.2833685-.6315789.6315787-.6315789s.6315787.2833684.6315787.6315789c0 .041895-.00466.082947-.012421.1227369l-.00186.00884c-.000854.00358-.00233.00674-.00318.01032-.00779.033264-.017475.065895-.030105.097053-.00652.01579-.015371.030316-.023157.045472-.00968.018948-.01895.038106-.030315.05579-.010113.015789-.022108.030316-.033684.045053-.011583.014947-.023157.029684-.035998.043579-.013477.014316-.027792.027579-.042527.040843-.013258.012-.026946.023369-.041471.034106-.016.012-.032419.023157-.049265.033473-.01579.00968-.032209.018316-.048839.026527-.017056.00842-.034104.016842-.051788.023789-.020425.008-.041898.013894-.063371.01979-.015371.00421-.030315.00926-.046105.012421-.038109.00716-.077259.011789-.1174738.011789-.3482101 0-.6315785-.2833684-.6315778-.6315783zm.824421 1.0345262c.00318-.0006316.00613-.00168.00926-.00232.012002-.00232.023577-.0061.035369-.00884.048209-.011368.095158-.026105.1408414-.043791.015371-.00589.030944-.011158.046105-.017684.049055-.021894.096-.047789.1410527-.076632.016838-.010737.032629-.022106.048846-.033895.038738-.027999.076001-.058315.1105264-.091368.012002-.011578.023367-.023157.03474-.034948.033894-.035368.065055-.073685.093895-.1136842.010113-.014105.020207-.027999.029686-.042737.028002-.043158.053892-.087579.075365-.1349471l4.9364235 1.4383121c-.000212.00779-.000212.015158-.000212.022737 0 .069684.00761.1374737.020634.2033683.00419.021895.012421.042105.017894.063579.011373.042947.022948.085895.039367.1265263.00968.023999.022521.045895.033894.069053.017475.035579.035159.070947.056632.1042106.014525.022737.031363.043578.04758.065053.022948.030316.046105.059789.072213.087369.018942.02.038948.038526.059373.057052.027575.025053.055786.048842.085895.070947.022521.016631.045679.031789.069472.046526.03179.019579.06421.037052.09811.053265.02548.012211.05095.023789.07748.033895.03537.013474.07158.024211.108631.033895.02758.00737.05474.014738.08337.01979.01137.0021.0221.00631.03348.008l1.963157 5.1039993c-.02632.0076-.05095.01938-.07642.02885-.0198.0074-.03979.01369-.05895.02231-.05053.02253-.09895.04884-.145053.07874-.0061.004-.01305.0068-.01894.01095-.05158.03495-.09916.07516-.143579.118527-.01305.01284-.02421.02716-.03663.04041-.03011.03242-.05853.0661-.08421.102106-.01284.0181-.02442.03663-.03621.05537-.0221.03516-.04169.07158-.05958.109473-.0095.02022-.01894.04-.02716.06084-.01664.04232-.02969.08632-.04084.131158-.0044.01768-.01031.03474-.0139.05284-.01179.06126-.01937.12421-.02021.188631l-7.8705512.871166c0-.00021-.0002105-.00042-.0002105-.000631-.00334-.0082-.008-.01558-.011583-.02358-.021054-.04695-.045686-.09157-.073051-.134525-.00905-.01431-.017685-.02843-.027365-.04211-.031371-.04442-.065684-.08632-.103369-.125052-.012631-.01305-.026108-.02463-.039368-.03705-.03179-.02969-.065265-.05747-.1006312-.08316-.013267-.0097-.02568-.02021-.039577-.02948-.04484-.02948-.092421-.05431-.141263-.07684-.017265-.008-.034523-.01537-.052425-.02231-.049684-.01979-.1006312-.03705-.1534738-.04905zm-1.0349477 9.9128413c-.3482102 0-.6315786-.283369-.6315786-.631579 0-.348211.2833684-.631579.6315786-.631579.040213 0 .079369.0047.117684.01179.01579.003.030734.0082.046105.01242.021473.0057.042736.01179.063371.01958.017894.007.03495.01537.051998.024.016629.0082.032838.01685.048628.02653.017056.01035.033475.02168.049265.03368.014315.01074.028002.02231.041471.0341.014736.01305.02905.02632.042527.04084.012631.01369.024213.02864.035788.04337.011583.01473.023367.02927.033684.04505.011365.01769.020636.03684.030315.05559.00779.01515.016629.02969.023158.04547.01284.03115.022529.06358.030106.09684.0008539.0036.00233.0068.00318.01035l.00186.0088c.00779.04021.012421.08127.012421.123157-.0000008.34822-.2833693.63159-.6315794.63159zm9.8947352-1.263158c-.303157 0-.556631-.214737-.617263-.500001v-.000209c-.0097-.04442-.01431-.08863-.01431-.131369 0-.34821.283369-.631578.631577-.631578.348211 0 .63158.283368.63158.631578s-.283369.631579-.631581.631579z" fill="#0000c8" stroke-width=".311"/><g fill="none" stroke-width=".5"><path d="m7.125 12.55-.3-8.875"/><path d="m3.375 8.1h8.225"/></g></g></svg>
