<svg height="16" viewBox="0 0 15.999999 15.999999" width="16" xmlns="http://www.w3.org/2000/svg"><path d="m13.284911 12.355409c.687936-.828268 1.174663-1.817246 1.407429-2.859897l1.166694.2593905c-.273724 1.2261825-.845637 2.3886685-1.65382 3.3616625zm-.382257-10.7017336c-1.004295-.76934562-2.189954-1.29584032-3.4289255-1.52246919l-.2155529 1.17322189c1.0533804.1927538 2.0619764.6406839 2.9165384 1.2954427zm-12.56286934 4.0303362 1.14358584.3471c.311416-1.0220566.8715347-1.9719099 1.6197145-2.7469808l-.8608569-.8274736c-.8784676.9100144-1.53636214 2.0260622-1.90244344 3.2273544zm2.33785234 8.3002634c.9442094.842184 2.0865997 1.456308 3.3037363 1.775817l.3041647-1.153502c-1.0352913-.271876-2.0074707-.794553-2.8114312-1.511654zm-1.662347-2.065902 1.0425427-.58351c-.5248971-.933869-.8234836-1.9943334-.8634068-3.0665664l-1.1944259.0444509c.04693559 1.2604542.39803573 2.5072315 1.01529 3.6056255zm3.9033-9.9805766c.9671592-.4943692 2.0115348-.7450128 3.1039616-.7450128v-1.1927836c-1.265666 0-2.5274272.30304655-3.6489398.87621886zm11.08141 5.1711146c-.141125-1.2507531-.585618-2.4676309-1.285348-3.5190298l-.995687.6599274c.595182.894349.973214 1.9292083 1.093303 2.992694zm-7.3739003 8.891089c1.2590518-.09392 2.4944363-.491189 3.5725203-1.148889l-.62347-1.017605c-.916877.559257-1.9673882.897133-3.0380605.97697z" fill="#0404f0" stroke-width=".079603"/></svg>