<?xml version="1.0" encoding="UTF-8" standalone="no"?>
<svg
   xmlns:dc="http://purl.org/dc/elements/1.1/"
   xmlns:cc="http://creativecommons.org/ns#"
   xmlns:rdf="http://www.w3.org/1999/02/22-rdf-syntax-ns#"
   xmlns:svg="http://www.w3.org/2000/svg"
   xmlns="http://www.w3.org/2000/svg"
   xmlns:sodipodi="http://sodipodi.sourceforge.net/DTD/sodipodi-0.dtd"
   xmlns:inkscape="http://www.inkscape.org/namespaces/inkscape"
   inkscape:version="1.0 (4035a4f, 2020-05-01)"
   height="16"
   width="16"
   sodipodi:docname="elastic.svg"
   id="svg843"
   version="1.1"
   viewBox="0 0 16 15.999999">
  <metadata
     id="metadata849">
    <rdf:RDF>
      <cc:Work
         rdf:about="">
        <dc:format>image/svg+xml</dc:format>
        <dc:type
           rdf:resource="http://purl.org/dc/dcmitype/StillImage" />
        <dc:title></dc:title>
      </cc:Work>
    </rdf:RDF>
  </metadata>
  <defs
     id="defs847" />
  <sodipodi:namedview
     inkscape:current-layer="svg843"
     inkscape:window-maximized="0"
     inkscape:window-y="76"
     inkscape:window-x="1999"
     inkscape:cy="6.9563728"
     inkscape:cx="8.0001729"
     inkscape:zoom="38.311147"
     showgrid="false"
     id="namedview845"
     inkscape:window-height="892"
     inkscape:window-width="1513"
     inkscape:pageshadow="2"
     inkscape:pageopacity="0"
     guidetolerance="10"
     gridtolerance="10"
     objecttolerance="10"
     borderopacity="1"
     bordercolor="#666666"
     pagecolor="#ffffff" />
  <path
     style="stroke-width:0.0312511;fill:#a200b1;fill-opacity:1"
     id="path833"
     d="M 11.502278,6.0775972 6.0761782,11.503697 6.603663,12.031304 c 0.045778,0.04566 0.08887,0.09339 0.1300097,0.142217 L 12.172102,6.7350916 c -0.04883,-0.041139 -0.09644,-0.08411 -0.142217,-0.1297652 z m 0,0" />
  <path
     style="stroke-width:0.0312511;fill:#a200b1;fill-opacity:1"
     id="path835"
     d="M 4.4957985,9.9234397 9.9220208,4.4972175 9.3944135,3.9697327 c -0.0459,-0.0459 -0.088748,-0.093631 -0.1298876,-0.1424611 L 3.8259746,9.265823 c 0.04883,0.041261 0.096561,0.084232 0.1423392,0.1300094 z m 0,0" />
  <path
     style="stroke-width:0.03023622;stroke-miterlimit:4;stroke-dasharray:none;fill:#a200b1;fill-opacity:1"
     id="path839"
     d="m 12.989026,0.37499799 c -0.499408,-0.49940775 -1.312059,-0.49928568 -1.811345,0 L 10.058134,1.4945454 c -0.4994077,0.4994077 -0.4994077,1.3120592 0,1.811467 l 2.635349,2.6353492 c 0.249765,0.2496429 0.577658,0.3745254 0.905673,0.3745254 0.328014,0 0.656029,-0.1247603 0.905672,-0.3745254 l 1.119548,-1.1195473 c 0.49953,-0.4994078 0.49953,-1.311937 0,-1.8113448 z M 14.960777,4.1580939 13.84123,5.2776414 c -0.133428,0.1334277 -0.350599,0.1334277 -0.484026,0 L 10.721854,2.642292 c -0.133427,-0.1334276 -0.133427,-0.3505986 0,-0.4840262 l 1.119548,-1.1195475 c 0.06458,-0.0645775 0.150518,-0.10022334 0.241952,-0.10022334 0.09143,0 0.177374,0.0356458 0.242074,0.10022334 l 2.635349,2.6353494 c 0.06458,0.064699 0.100224,0.15064 0.100224,0.2420743 0,0.091434 -0.03552,0.1773746 -0.100224,0.2419519 z m 0,0" />
  <path
     style="stroke-width:0.0312511;fill:#a200b1;fill-opacity:1"
     id="path841"
     d="m 3.3045935,10.059553 c -0.4994078,-0.4994078 -1.3120593,-0.4994078 -1.811467,0 L 0.37357905,11.1791 c -0.49940774,0.499408 -0.49940774,1.31206 0,1.811467 l 2.63534935,2.63535 c 0.2419523,0.241952 0.5636192,0.375136 0.9057947,0.375136 0.3421753,0 0.6637204,-0.133184 0.9056723,-0.375136 L 5.9399427,14.50637 c 0.2419522,-0.241952 0.3751359,-0.56362 0.3751359,-0.905673 0,-0.342176 -0.1331837,-0.663843 -0.3751359,-0.905673 z m 1.9717511,3.783096 -1.1196696,1.119547 c -0.064577,0.0647 -0.1505179,0.100223 -0.2419519,0.100223 -0.091434,0 -0.1773749,-0.03552 -0.2419522,-0.100223 L 1.0372994,12.326847 c -0.1334277,-0.133428 -0.1334277,-0.350599 0,-0.484026 l 1.1196694,-1.119548 c 0.066653,-0.06678 0.1543025,-0.100101 0.2419522,-0.100101 0.08765,0 0.1752993,0.03333 0.2419521,0.100101 l 0.1956858,0.195686 2.2440998,2.243978 0.1956859,0.195685 c 0.064577,0.0647 0.1002233,0.150641 0.1002233,0.242075 0,0.09131 -0.035646,0.177252 -0.1002233,0.241952 z m 0,0" />
</svg>
