<svg height="16" viewBox="0 0 16 16" width="16" xmlns="http://www.w3.org/2000/svg"><g fill="#be0204" transform="matrix(.98460552 0 0 .8646214 -1.096458 0)"><path d="m17.109 5.454c-.242-.289-.673-.327-.962-.086l-1.894 1.591-.871-2.158c-.031-.081-.078-.149-.132-.209-.178-.396-.487-.736-.913-.933-.185-.084-.376-.129-.567-.151-.042-.022-.08-.051-.128-.066l-3.333-.929c-.187-.051-.375-.018-.529.072-.183.062-.34.195-.415.388l-1.255 3.227c-.136.351.038.747.39.885.35.136.747-.039.884-.391l1.06-2.725 1.518.422c-.037.06-.077.116-.107.18l-1.946 4.218c-.028.062-.043.125-.063.189l-2.365 3.965-3.958 1.324c-.448.335-.543.966-.212 1.414.333.449.966.544 1.413.213l4.05-1.395c.124-.09.214-.208.282-.335.051-.054.109-.097.148-.164l1.41-2.364 2.503 2.133-2.678 3.018c-.369.416-.332 1.057.086 1.425.417.371 1.056.332 1.427-.086l3.342-3.765c.104-.116.166-.25.208-.39.025-.076.025-.155.031-.234 0-.04.015-.076.012-.113-.009-.276-.121-.544-.347-.735l-2.303-1.964c.166-.158.307-.346.409-.567l1.492-3.231.478 1.273c.02.113.058.224.138.317.072.086.164.143.262.183.01.005.022.006.034.009.062.022.125.043.19.046.077.007.155-.003.234-.025.002-.001.003-.001.003-.001.021-.005.042-.001.063-.01.111-.042.196-.113.269-.196l2.718-2.307c.289-.243.167-.673-.076-.962z"/><circle cx="13.671" cy="1.905" r="1.905"/></g></svg>